<svg width="16" height="18" viewBox="0 0 16 18" fill="none" xmlns="http://www.w3.org/2000/svg">
<path d="M9.60141 5.67415C9.2961 4.96353 8.2886 4.96353 7.98329 5.67415L6.814 8.39576C6.72496 8.60301 6.55978 8.76818 6.35253 8.85722L3.63093 10.0265C2.9203 10.3318 2.9203 11.3393 3.63093 11.6446L6.35253 12.8139C6.55978 12.903 6.72496 13.0681 6.814 13.2754L7.98329 15.997C8.2886 16.7076 9.2961 16.7076 9.60141 15.997L10.7707 13.2754C10.8597 13.0681 11.0249 12.903 11.2322 12.8139L13.9538 11.6446C14.6644 11.3393 14.6644 10.3318 13.9538 10.0265L11.2322 8.85722C11.0249 8.76818 10.8597 8.60301 10.7707 8.39576L9.60141 5.67415Z" fill="#32AEA4"/>
<path d="M3.81106 1.41381C3.66291 1.06897 3.17401 1.06897 3.02585 1.41381L2.45844 2.73451C2.41523 2.83508 2.33508 2.91523 2.23451 2.95844L0.913815 3.52585C0.568974 3.67401 0.568974 4.16291 0.913815 4.31106L2.23451 4.87848C2.33508 4.92169 2.41523 5.00184 2.45844 5.10241L3.02585 6.4231C3.17401 6.76794 3.66291 6.76794 3.81106 6.4231L4.37848 5.10241C4.42169 5.00184 4.50184 4.92169 4.60241 4.87848L5.9231 4.31106C6.26794 4.16291 6.26794 3.67401 5.9231 3.52585L4.60241 2.95844C4.50184 2.91523 4.42169 2.83508 4.37848 2.73451L3.81106 1.41381Z" fill="#32AEA4"/>
</svg>
