<svg width="25" height="20" viewBox="0 0 25 20" fill="none" xmlns="http://www.w3.org/2000/svg">
<path d="M12.5 4.57683C9.29878 4.57683 6.70732 7.37561 6.70732 10.8329C6.70732 14.2902 9.29878 17.089 12.5 17.089C15.7012 17.089 18.2927 14.2902 18.2927 10.8329C18.2927 7.40854 15.7012 4.57683 12.5 4.57683ZM12.5 15.772C9.96951 15.772 7.92683 13.5659 7.92683 10.8329C7.92683 8.1 9.96951 5.8939 12.5 5.8939C15.0305 5.8939 17.0732 8.1 17.0732 10.8329C17.0732 13.5659 15.0305 15.772 12.5 15.772ZM22.561 3.25976L17.9878 3.29268L16.0671 0.263414C15.9451 0.0987802 15.7622 0 15.5793 0H9.42073C9.23781 0 9.05488 0.0987802 8.93293 0.263414L7.0122 3.29268H2.43902C1.09756 3.29268 0 4.44512 0 5.8939V17.122C0 18.5707 1.09756 19.7561 2.43902 19.7561H22.561C23.9024 19.7561 25 18.5707 25 17.122V5.59756C25 4.14878 23.9024 3.25976 22.561 3.25976ZM23.7805 17.122C23.7805 17.8463 23.2317 18.439 22.561 18.439H2.43902C1.76829 18.439 1.21951 17.8463 1.21951 17.122V5.8939C1.21951 5.16951 1.76829 4.60976 2.43902 4.60976H7.31707C7.5 4.60976 7.68293 4.51098 7.80488 4.34634L9.72561 1.31707H15.2744L17.1951 4.34634C17.3171 4.51098 17.5 4.60976 17.6829 4.60976L22.561 4.57683C23.2317 4.57683 23.7805 4.87317 23.7805 5.59756V17.122Z" fill="#7B8387"/>
</svg>
