<svg width="21" height="20" viewBox="0 0 21 20" fill="none" xmlns="http://www.w3.org/2000/svg">
<path d="M19.2174 14.5416C19.928 13.1594 20.2992 11.6278 20.3004 10.0736C20.3004 4.67232 15.9054 0.277344 10.5041 0.277344C5.10274 0.277344 0.707764 4.67232 0.707764 10.0736C0.707764 15.475 5.10274 19.8699 10.5041 19.8699C12.0554 19.8699 13.5926 19.4968 14.973 18.7879L19.1943 19.8432C19.3434 19.8808 19.4997 19.8789 19.6478 19.8379C19.796 19.7968 19.9309 19.7179 20.0394 19.609C20.1482 19.5002 20.227 19.3651 20.268 19.2168C20.3091 19.0686 20.311 18.9122 20.2736 18.763L19.2174 14.5416ZM17.4069 14.6396L18.1852 17.7548L15.07 16.9756C14.8498 16.9212 14.6171 16.9524 14.419 17.0629C13.2234 17.7345 11.8754 18.0877 10.5041 18.0888C6.08415 18.0888 2.48891 14.4927 2.48891 10.0736C2.48891 5.65462 6.08415 2.05849 10.5041 2.05849C14.924 2.05849 18.5192 5.65462 18.5192 10.0736C18.518 11.4445 18.1651 12.7922 17.4942 13.9877C17.3825 14.1858 17.3513 14.4192 17.4069 14.6396Z" fill="#7B8387"/>
</svg>
