<svg width="14" height="12" viewBox="0 0 14 12" fill="none" xmlns="http://www.w3.org/2000/svg">
<path d="M0.0266793 4.01647C0.0300143 4.03059 0.0400191 4.03765 0.0466889 4.05176C0.0600286 4.07647 0.0700333 4.10118 0.0867079 4.12235L6.75655 11.8871C6.75989 11.8941 6.76989 11.8941 6.77322 11.9012C6.79657 11.9259 6.82325 11.9435 6.84993 11.9612C6.85993 11.9682 6.86994 11.9718 6.87994 11.9788C6.91996 11.9894 6.95998 12 7.00333 12C7.04669 12 7.08671 11.9894 7.12339 11.9718C7.1334 11.9682 7.1434 11.9612 7.15341 11.9541C7.18342 11.94 7.20677 11.9188 7.23011 11.8941C7.23678 11.8871 7.24345 11.8871 7.24678 11.88L13.9166 4.11529C13.9333 4.09412 13.9466 4.06941 13.9566 4.04471C13.9633 4.03412 13.9733 4.02353 13.9767 4.00941C13.9933 3.96706 14 3.92471 14 3.88235C14 3.87882 14 3.87882 14 3.87882C14 3.86824 13.9967 3.85765 13.9933 3.84706C13.99 3.81529 13.9867 3.78353 13.9767 3.75529C13.97 3.73765 13.96 3.72353 13.95 3.70588C13.94 3.69177 13.9366 3.67412 13.9266 3.65647L11.2587 0.127059C11.2554 0.123529 11.2487 0.12 11.2454 0.116471C11.2253 0.0917647 11.1987 0.0741176 11.172 0.0564705C11.1586 0.0458823 11.1453 0.0352941 11.132 0.0282353C11.1286 0.0247059 11.1253 0.0211764 11.122 0.0211764C11.0886 0.0070588 11.0586 0.00352949 11.0253 0.00352949C11.0219 0.0070589 11.0152 0 11.0052 0H3.00143C2.99142 0 2.98142 0.00705882 2.97141 0.00705882C2.9414 0.0105882 2.90805 0.0105883 2.87804 0.0247059C2.8747 0.0247059 2.87137 0.0317648 2.86803 0.0317648C2.85136 0.0388236 2.84135 0.0494118 2.82801 0.06C2.80133 0.0776471 2.77465 0.0952942 2.75464 0.12C2.75131 0.123529 2.74464 0.127059 2.74131 0.130588L0.0733683 3.66C0.0633635 3.67412 0.0566937 3.69176 0.0500239 3.70941C0.0400191 3.72706 0.0300143 3.74118 0.0233444 3.75882C0.0133397 3.79059 0.00666984 3.81882 0.00666984 3.85059C0.00333492 3.86118 0 3.87176 0 3.88235C0 3.88588 0 3.88588 0 3.88588C0 3.93176 0.0100047 3.97412 0.0266793 4.01647ZM1.08718 4.23529H4.10195L6.11291 10.0835L1.08718 4.23529ZM7.00333 10.6129L4.81229 4.23529H9.19438L7.00333 10.6129ZM7.89376 10.0835L9.90472 4.23529H12.9195L7.89376 10.0835ZM11.102 1.04471L12.9795 3.52941H10.1648L11.102 1.04471ZM10.5117 0.705882L9.57456 3.19059L7.697 0.705882H10.5117ZM8.97761 3.52941H5.02906L7.00333 0.917647L8.97761 3.52941ZM6.30967 0.705882L4.43211 3.19059L3.495 0.705882H6.30967ZM2.90472 1.04471L3.84183 3.52941H1.02716L2.90472 1.04471Z" fill="white"/>
</svg>
