<svg width="29" height="18" viewBox="0 0 29 18" fill="none" xmlns="http://www.w3.org/2000/svg">
<path d="M4.49086 3.02452L1.08366 7.32578C0.702798 7.79304 0.743972 8.49994 1.13513 8.94324C1.53658 9.38655 2.14391 9.33862 2.52477 8.88333L4.16146 6.84653V14.9099C4.16146 16.3836 5.18053 17.5937 6.46724 17.5937H18.0785C18.624 17.5937 19.0564 17.0905 19.0564 16.4555C19.0564 15.8205 18.624 15.3172 18.0785 15.3172H6.85839C6.44665 15.3172 6.12754 14.9338 6.12754 14.4666V6.95436L7.67159 8.89532C8.05246 9.36258 8.65978 9.38655 9.06123 8.95522C9.46268 8.51192 9.48327 7.80503 9.1127 7.33776L5.70551 3.0365C5.34523 2.62914 4.78937 2.62914 4.49086 3.02452ZM24.4061 15.1258L27.8133 10.8245C28.1942 10.3573 28.153 9.65038 27.7618 9.20708C27.3604 8.76377 26.753 8.8117 26.3722 9.26698L24.7355 11.3038V3.24043C24.7355 1.76674 23.7164 0.556641 22.4297 0.556641H10.8391C10.2935 0.556641 9.86119 1.05985 9.86119 1.69486C9.86119 2.32986 10.2935 2.83307 10.8391 2.83307H22.0592C22.4709 2.83307 22.79 3.21647 22.79 3.68374V11.196L21.246 9.255C20.8651 8.78773 20.2578 8.76377 19.8563 9.19509C19.4549 9.6384 19.4343 10.3453 19.8048 10.8126L23.212 15.1138C23.5517 15.5332 24.0973 15.5332 24.4061 15.1258Z" fill="#7B8387"/>
</svg>
