<svg width="22" height="21" viewBox="0 0 22 21" fill="none" xmlns="http://www.w3.org/2000/svg">
<path d="M7.98756 12.3121L13.0487 6.7441C13.4124 6.35509 13.9006 6.13918 14.4077 6.14307C14.9149 6.14696 15.4003 6.37034 15.759 6.7649C16.1176 7.15945 16.3207 7.69347 16.3242 8.25144C16.3277 8.80941 16.1315 9.34649 15.7779 9.74651L7.59007 18.756C6.86615 19.5525 5.88428 20 4.86046 20C3.83664 20 2.85474 19.5526 2.13076 18.7562C1.40679 17.9598 1.00004 16.8796 1 15.7533C0.999961 14.627 1.40663 13.5468 2.13055 12.7503L11.1154 2.86573C13.3767 0.37809 17.0429 0.37809 19.3041 2.86573C21.5653 5.35337 21.5653 9.38668 19.3041 11.8739L13.4471 18.3178" stroke="#7B8387" stroke-width="1.3" stroke-miterlimit="10" stroke-linecap="round" stroke-linejoin="round"/>
</svg>
