<svg width="14" height="14" viewBox="0 0 14 14" fill="none" xmlns="http://www.w3.org/2000/svg">
<path d="M13.6148 13.6148C13.4928 13.7369 13.3479 13.8338 13.1884 13.8999C13.0289 13.966 12.8579 14 12.6853 14C12.5126 14 12.3417 13.966 12.1822 13.8999C12.0227 13.8338 11.8778 13.7369 11.7557 13.6148L9.43562 11.2947C8.4811 11.9056 7.35303 12.2711 6.13556 12.2711C2.74698 12.2711 0 9.52415 0 6.13556C0 2.74698 2.74698 0 6.13556 0C9.52415 0 12.2711 2.74698 12.2711 6.13556C12.2711 7.35303 11.9056 8.4811 11.2947 9.43562L13.6148 11.7557C13.7369 11.8778 13.8338 12.0227 13.8999 12.1822C13.966 12.3417 14 12.5126 14 12.6853C14 12.8579 13.966 13.0289 13.8999 13.1884C13.8338 13.3479 13.7369 13.4928 13.6148 13.6148ZM6.13556 1.75302C3.71552 1.75302 1.75302 3.71464 1.75302 6.13556C1.75302 8.55648 3.71552 10.5181 6.13556 10.5181C8.55648 10.5181 10.5181 8.55648 10.5181 6.13556C10.5181 3.71464 8.55648 1.75302 6.13556 1.75302Z" fill="#7B8387"/>
</svg>
