<svg width="1440" height="434" viewBox="0 0 1440 434" fill="none" xmlns="http://www.w3.org/2000/svg">
<path d="M661 525.5C661 815.726 425.95 1051 136 1051C-153.949 1051 -389 815.726 -389 525.5C-389 235.274 -153.949 0 136 0C425.95 0 661 235.274 661 525.5Z" fill="#E7FFFD"/>
<ellipse cx="1324" cy="535.5" rx="525" ry="525.5" fill="#E7FFFD"/>
<ellipse cx="746" cy="608.5" rx="525" ry="525.5" fill="#D8FEFB"/>
<path d="M1472 825.5C1472 1115.73 1236.95 1351 947 1351C657.051 1351 422 1115.73 422 825.5C422 535.274 657.051 300 947 300C1236.95 300 1472 535.274 1472 825.5Z" fill="#F0FEFD"/>
<path d="M797 782.5C797 1072.73 561.95 1308 272 1308C-17.9495 1308 -253 1072.73 -253 782.5C-253 492.274 -17.9495 257 272 257C561.95 257 797 492.274 797 782.5Z" fill="#C6FFFB"/>
</svg>
