<svg width="103" height="103" viewBox="0 0 103 103" fill="none" xmlns="http://www.w3.org/2000/svg">
<g filter="url(#filter0_d_119_152)">
<g clip-path="url(#clip0_119_152)">
<rect x="11" y="7" width="81" height="81" rx="40.5" fill="white"/>
<circle cx="51.5" cy="47.5" r="39.75" stroke="#33ADA4" stroke-width="1.5"/>
<g filter="url(#filter1_f_119_152)">
<path d="M65.6615 18.6527C73.8609 28.2432 74.0112 41.5722 65.997 48.4239C57.9829 55.2756 44.8392 53.0553 36.6398 43.4648C28.4404 33.8743 28.2902 20.5452 36.3043 13.6935C44.3184 6.84187 57.4621 9.06214 65.6615 18.6527Z" fill="#A7FFF8"/>
</g>
<g filter="url(#filter2_f_119_152)">
<ellipse cx="59.9461" cy="67.0781" rx="18" ry="28.5" transform="rotate(-11.6232 59.9461 67.0781)" fill="#00FFED"/>
</g>
<g filter="url(#filter3_f_119_152)">
<ellipse cx="10.9026" cy="37.0938" rx="10.9026" ry="37.0938" transform="matrix(0.931863 -0.362811 0.268283 0.96334 61.1865 -3.36523)" fill="#33ADA4"/>
</g>
<g filter="url(#filter4_f_119_152)">
<ellipse cx="29.7218" cy="54.1521" rx="18" ry="27.75" transform="rotate(-11.6232 29.7218 54.1521)" fill="#11E8D7"/>
</g>
<g filter="url(#filter5_d_119_152)">
<path d="M62.4854 47.2411C61.1496 48.733 62.2483 51.099 64.25 51.041L68.7793 50.9098C69.3631 50.8928 69.9311 51.1006 70.3662 51.4902L73.742 54.5128C75.2339 55.8486 77.5998 54.7499 77.5418 52.7482L77.4106 48.2188C77.3937 47.6351 77.6015 47.0671 77.991 46.632L81.0136 43.2562C82.3495 41.7643 81.2508 39.3983 79.2491 39.4563L74.7197 39.5876C74.1359 39.6045 73.5679 39.3967 73.1328 39.0071L69.757 35.9845C68.2651 34.6487 65.8992 35.7474 65.9572 37.7491L66.0884 42.2785C66.1053 42.8622 65.8976 43.4302 65.508 43.8653L62.4854 47.2411Z" fill="#B2FFF9"/>
</g>
<g filter="url(#filter6_d_119_152)">
<path d="M44.1026 68.0663C43.4544 68.7903 43.9876 69.9384 44.9589 69.9102L47.1568 69.8465C47.4401 69.8383 47.7158 69.9391 47.9269 70.1282L49.565 71.5949C50.289 72.2432 51.4371 71.71 51.409 70.7387L51.3453 68.5407C51.3371 68.2575 51.4379 67.9818 51.6269 67.7707L53.0937 66.1326C53.7419 65.4086 53.2088 64.2605 52.2374 64.2886L50.0395 64.3523C49.7562 64.3605 49.4806 64.2597 49.2694 64.0707L47.6313 62.6039C46.9073 61.9557 45.7592 62.4888 45.7874 63.4602L45.8511 65.6581C45.8593 65.9414 45.7584 66.217 45.5694 66.4282L44.1026 68.0663Z" fill="#B2FFF9"/>
</g>
<g filter="url(#filter7_d_119_152)">
<path d="M40.667 57.0191C42.6098 57.5047 44.19 55.4292 43.2049 53.6857L40.3284 48.5945C40.0411 48.086 39.9599 47.4867 40.1015 46.9201L41.5194 41.247C42.005 39.3042 39.9295 37.7241 38.186 38.7092L33.0948 41.5857C32.5864 41.873 31.987 41.9542 31.4204 41.8126L25.7474 40.3946C23.8046 39.909 22.2244 41.9845 23.2095 43.728L26.086 48.8192C26.3733 49.3277 26.4545 49.927 26.3129 50.4936L24.8949 56.1667C24.4094 58.1095 26.4849 59.6897 28.2284 58.7046L33.3196 55.828C33.828 55.5407 34.4274 55.4595 34.9939 55.6011L40.667 57.0191Z" fill="#E7FFFD"/>
</g>
<g filter="url(#filter8_d_119_152)">
<path d="M50.4054 39.065C49.6407 38.5135 48.5807 39.1101 48.6554 40.05L48.8557 42.5714C48.8781 42.8534 48.7916 43.1333 48.614 43.3535L47.0902 45.2433C46.4627 46.0216 47.1074 47.167 48.0982 47.0344L50.5045 46.7124C50.7848 46.6749 51.0689 46.7462 51.2984 46.9116L53.3499 48.3912C54.1146 48.9427 55.1746 48.3462 55.1 47.4063L54.8997 44.8848C54.8773 44.6028 54.9637 44.323 55.1413 44.1028L56.6651 42.2129C57.2926 41.4347 56.6479 40.2893 55.6571 40.4218L53.2509 40.7438C52.9705 40.7814 52.6864 40.7101 52.4569 40.5446L50.4054 39.065Z" fill="#C6FFFB"/>
</g>
<g filter="url(#filter9_d_119_152)">
<path d="M40.5036 25.6702C40.1077 24.8144 38.8913 24.8144 38.4954 25.6702L36.529 29.9201C36.4102 30.1769 36.1976 30.3783 35.9349 30.4832L31.5753 32.2224C30.6468 32.5928 30.6468 33.9072 31.5753 34.2776L35.9349 36.0168C36.1976 36.1217 36.4102 36.3231 36.529 36.5799L38.4954 40.8298C38.8913 41.6856 40.1077 41.6856 40.5036 40.8298L42.47 36.5799C42.5888 36.3231 42.8014 36.1217 43.0641 36.0168L47.4237 34.2776C48.3522 33.9072 48.3522 32.5928 47.4237 32.2224L43.0641 30.4832C42.8014 30.3783 42.5888 30.1769 42.47 29.9201L40.5036 25.6702Z" fill="#3FDFD4"/>
</g>
<g filter="url(#filter10_d_119_152)">
<path d="M62.4885 31.5514C63.4556 31.4564 63.8392 30.25 63.1046 29.6139L60.2911 27.1776C60.0769 26.9921 59.942 26.7314 59.9143 26.4494L59.5505 22.7455C59.4555 21.7784 58.2492 21.3948 57.6131 22.1294L55.1768 24.9429C54.9913 25.1571 54.7306 25.292 54.4486 25.3197L50.7447 25.6835C49.7776 25.7785 49.3939 26.9848 50.1286 27.6209L52.942 30.0572C53.1563 30.2428 53.2912 30.5034 53.3189 30.7855L53.6827 34.4894C53.7777 35.4565 54.984 35.8401 55.6201 35.1055L58.0564 32.292C58.2419 32.0777 58.5026 31.9429 58.7846 31.9152L62.4885 31.5514Z" fill="#E7FFFD"/>
</g>
<g filter="url(#filter11_d_119_152)">
<path d="M61.8448 41.8757C61.0543 40.0358 58.4457 40.0358 57.6552 41.8757L54.0235 50.3287C53.793 50.8653 53.3653 51.293 52.8287 51.5235L44.3757 55.1552C42.5358 55.9457 42.5358 58.5543 44.3757 59.3448L52.8287 62.9765C53.3653 63.207 53.793 63.6347 54.0235 64.1713L57.6552 72.6243C58.4457 74.4642 61.0543 74.4642 61.8448 72.6243L65.4765 64.1713C65.707 63.6347 66.1347 63.207 66.6713 62.9765L75.1243 59.3448C76.9642 58.5543 76.9642 55.9457 75.1243 55.1552L66.6713 51.5235C66.1347 51.293 65.707 50.8653 65.4765 50.3287L61.8448 41.8757Z" fill="#3FDFD4"/>
</g>
<g filter="url(#filter12_d_119_152)">
<path d="M35.8501 59.2752C34.2456 58.077 31.9778 59.3863 32.2132 61.375C32.2818 61.955 32.1242 62.5431 31.7748 63.011C30.5766 64.6156 31.8859 66.8834 33.8746 66.648C34.4546 66.5794 35.0427 66.737 35.5106 67.0864C37.1152 68.2846 39.383 66.9753 39.1476 64.9866C39.079 64.4066 39.2366 63.8185 39.586 63.3506C40.7842 61.746 39.4748 59.4782 37.4862 59.7136C36.9062 59.7822 36.3181 59.6246 35.8501 59.2752Z" fill="#C6FFFB"/>
</g>
<g filter="url(#filter13_d_119_152)">
<path d="M72.5783 33.5773C72.3226 32.9821 71.4787 32.9821 71.223 33.5773L70.2435 35.857C70.169 36.0306 70.0306 36.1689 69.857 36.2435L67.5774 37.2229C66.9821 37.4787 66.9821 38.3226 67.5774 38.5783L69.857 39.5577C70.0306 39.6323 70.169 39.7707 70.2435 39.9443L71.223 42.2239C71.4787 42.8191 72.3226 42.8191 72.5783 42.2239L73.5577 39.9443C73.6323 39.7707 73.7707 39.6323 73.9443 39.5577L76.2239 38.5783C76.8192 38.3226 76.8192 37.4787 76.2239 37.2229L73.9443 36.2435C73.7707 36.1689 73.6323 36.0306 73.5577 35.857L72.5783 33.5773Z" fill="#FFFDF9"/>
</g>
</g>
</g>
<defs>
<filter id="filter0_d_119_152" x="0" y="0" width="103" height="103" filterUnits="userSpaceOnUse" color-interpolation-filters="sRGB">
<feFlood flood-opacity="0" result="BackgroundImageFix"/>
<feColorMatrix in="SourceAlpha" type="matrix" values="0 0 0 0 0 0 0 0 0 0 0 0 0 0 0 0 0 0 127 0" result="hardAlpha"/>
<feOffset dy="4"/>
<feGaussianBlur stdDeviation="5.5"/>
<feComposite in2="hardAlpha" operator="out"/>
<feColorMatrix type="matrix" values="0 0 0 0 0 0 0 0 0 0.94 0 0 0 0 1 0 0 0 0.25 0"/>
<feBlend mode="normal" in2="BackgroundImageFix" result="effect1_dropShadow_119_152"/>
<feBlend mode="normal" in="SourceGraphic" in2="effect1_dropShadow_119_152" result="shape"/>
</filter>
<filter id="filter1_f_119_152" x="15.3906" y="-5.28516" width="71.52" height="72.6875" filterUnits="userSpaceOnUse" color-interpolation-filters="sRGB">
<feFlood flood-opacity="0" result="BackgroundImageFix"/>
<feBlend mode="normal" in="SourceGraphic" in2="BackgroundImageFix" result="shape"/>
<feGaussianBlur stdDeviation="7.5" result="effect1_foregroundBlur_119_152"/>
</filter>
<filter id="filter2_f_119_152" x="26.3989" y="23.9258" width="67.0947" height="86.3047" filterUnits="userSpaceOnUse" color-interpolation-filters="sRGB">
<feFlood flood-opacity="0" result="BackgroundImageFix"/>
<feBlend mode="normal" in="SourceGraphic" in2="BackgroundImageFix" result="shape"/>
<feGaussianBlur stdDeviation="7.5" result="effect1_foregroundBlur_119_152"/>
</filter>
<filter id="filter3_f_119_152" x="52.0762" y="-22.543" width="58.4434" height="101.912" filterUnits="userSpaceOnUse" color-interpolation-filters="sRGB">
<feFlood flood-opacity="0" result="BackgroundImageFix"/>
<feBlend mode="normal" in="SourceGraphic" in2="BackgroundImageFix" result="shape"/>
<feGaussianBlur stdDeviation="7.5" result="effect1_foregroundBlur_119_152"/>
</filter>
<filter id="filter4_f_119_152" x="-3.7793" y="11.7266" width="67.002" height="84.8496" filterUnits="userSpaceOnUse" color-interpolation-filters="sRGB">
<feFlood flood-opacity="0" result="BackgroundImageFix"/>
<feBlend mode="normal" in="SourceGraphic" in2="BackgroundImageFix" result="shape"/>
<feGaussianBlur stdDeviation="7.5" result="effect1_foregroundBlur_119_152"/>
</filter>
<filter id="filter5_d_119_152" x="61.8989" y="35.3984" width="19.7012" height="19.7012" filterUnits="userSpaceOnUse" color-interpolation-filters="sRGB">
<feFlood flood-opacity="0" result="BackgroundImageFix"/>
<feColorMatrix in="SourceAlpha" type="matrix" values="0 0 0 0 0 0 0 0 0 0 0 0 0 0 0 0 0 0 127 0" result="hardAlpha"/>
<feOffset/>
<feComposite in2="hardAlpha" operator="out"/>
<feColorMatrix type="matrix" values="0 0 0 0 1 0 0 0 0 0.992157 0 0 0 0 0.976471 0 0 0 1 0"/>
<feBlend mode="normal" in2="BackgroundImageFix" result="effect1_dropShadow_119_152"/>
<feBlend mode="normal" in="SourceGraphic" in2="effect1_dropShadow_119_152" result="shape"/>
</filter>
<filter id="filter6_d_119_152" x="43.8184" y="62.3203" width="9.56006" height="9.55859" filterUnits="userSpaceOnUse" color-interpolation-filters="sRGB">
<feFlood flood-opacity="0" result="BackgroundImageFix"/>
<feColorMatrix in="SourceAlpha" type="matrix" values="0 0 0 0 0 0 0 0 0 0 0 0 0 0 0 0 0 0 127 0" result="hardAlpha"/>
<feOffset/>
<feComposite in2="hardAlpha" operator="out"/>
<feColorMatrix type="matrix" values="0 0 0 0 1 0 0 0 0 0.992157 0 0 0 0 0.976471 0 0 0 1 0"/>
<feBlend mode="normal" in2="BackgroundImageFix" result="effect1_dropShadow_119_152"/>
<feBlend mode="normal" in="SourceGraphic" in2="effect1_dropShadow_119_152" result="shape"/>
</filter>
<filter id="filter7_d_119_152" x="22.9077" y="38.4082" width="20.5986" height="20.5977" filterUnits="userSpaceOnUse" color-interpolation-filters="sRGB">
<feFlood flood-opacity="0" result="BackgroundImageFix"/>
<feColorMatrix in="SourceAlpha" type="matrix" values="0 0 0 0 0 0 0 0 0 0 0 0 0 0 0 0 0 0 127 0" result="hardAlpha"/>
<feOffset/>
<feComposite in2="hardAlpha" operator="out"/>
<feColorMatrix type="matrix" values="0 0 0 0 1 0 0 0 0 0.992157 0 0 0 0 0.976471 0 0 0 1 0"/>
<feBlend mode="normal" in2="BackgroundImageFix" result="effect1_dropShadow_119_152"/>
<feBlend mode="normal" in="SourceGraphic" in2="effect1_dropShadow_119_152" result="shape"/>
</filter>
<filter id="filter8_d_119_152" x="46.8418" y="38.8535" width="10.0718" height="9.75" filterUnits="userSpaceOnUse" color-interpolation-filters="sRGB">
<feFlood flood-opacity="0" result="BackgroundImageFix"/>
<feColorMatrix in="SourceAlpha" type="matrix" values="0 0 0 0 0 0 0 0 0 0 0 0 0 0 0 0 0 0 127 0" result="hardAlpha"/>
<feOffset/>
<feComposite in2="hardAlpha" operator="out"/>
<feColorMatrix type="matrix" values="0 0 0 0 1 0 0 0 0 0.992157 0 0 0 0 0.976471 0 0 0 1 0"/>
<feBlend mode="normal" in2="BackgroundImageFix" result="effect1_dropShadow_119_152"/>
<feBlend mode="normal" in="SourceGraphic" in2="effect1_dropShadow_119_152" result="shape"/>
</filter>
<filter id="filter9_d_119_152" x="26.8789" y="21.0293" width="25.2412" height="24.4414" filterUnits="userSpaceOnUse" color-interpolation-filters="sRGB">
<feFlood flood-opacity="0" result="BackgroundImageFix"/>
<feColorMatrix in="SourceAlpha" type="matrix" values="0 0 0 0 0 0 0 0 0 0 0 0 0 0 0 0 0 0 127 0" result="hardAlpha"/>
<feOffset/>
<feGaussianBlur stdDeviation="2"/>
<feComposite in2="hardAlpha" operator="out"/>
<feColorMatrix type="matrix" values="0 0 0 0 0.996078 0 0 0 0 0.992157 0 0 0 0 0.976471 0 0 0 1 0"/>
<feBlend mode="normal" in2="BackgroundImageFix" result="effect1_dropShadow_119_152"/>
<feBlend mode="normal" in="SourceGraphic" in2="effect1_dropShadow_119_152" result="shape"/>
</filter>
<filter id="filter10_d_119_152" x="49.7451" y="21.7461" width="13.7432" height="13.7422" filterUnits="userSpaceOnUse" color-interpolation-filters="sRGB">
<feFlood flood-opacity="0" result="BackgroundImageFix"/>
<feColorMatrix in="SourceAlpha" type="matrix" values="0 0 0 0 0 0 0 0 0 0 0 0 0 0 0 0 0 0 127 0" result="hardAlpha"/>
<feOffset/>
<feComposite in2="hardAlpha" operator="out"/>
<feColorMatrix type="matrix" values="0 0 0 0 1 0 0 0 0 0.992157 0 0 0 0 0.976471 0 0 0 1 0"/>
<feBlend mode="normal" in2="BackgroundImageFix" result="effect1_dropShadow_119_152"/>
<feBlend mode="normal" in="SourceGraphic" in2="effect1_dropShadow_119_152" result="shape"/>
</filter>
<filter id="filter11_d_119_152" x="38.9956" y="36.4961" width="41.5088" height="41.5078" filterUnits="userSpaceOnUse" color-interpolation-filters="sRGB">
<feFlood flood-opacity="0" result="BackgroundImageFix"/>
<feColorMatrix in="SourceAlpha" type="matrix" values="0 0 0 0 0 0 0 0 0 0 0 0 0 0 0 0 0 0 127 0" result="hardAlpha"/>
<feOffset/>
<feGaussianBlur stdDeviation="2"/>
<feComposite in2="hardAlpha" operator="out"/>
<feColorMatrix type="matrix" values="0 0 0 0 0.996078 0 0 0 0 0.992157 0 0 0 0 0.976471 0 0 0 1 0"/>
<feBlend mode="normal" in2="BackgroundImageFix" result="effect1_dropShadow_119_152"/>
<feBlend mode="normal" in="SourceGraphic" in2="effect1_dropShadow_119_152" result="shape"/>
</filter>
<filter id="filter12_d_119_152" x="31.3164" y="58.8164" width="8.72803" height="8.72852" filterUnits="userSpaceOnUse" color-interpolation-filters="sRGB">
<feFlood flood-opacity="0" result="BackgroundImageFix"/>
<feColorMatrix in="SourceAlpha" type="matrix" values="0 0 0 0 0 0 0 0 0 0 0 0 0 0 0 0 0 0 127 0" result="hardAlpha"/>
<feOffset/>
<feComposite in2="hardAlpha" operator="out"/>
<feColorMatrix type="matrix" values="0 0 0 0 1 0 0 0 0 0.992157 0 0 0 0 0.976471 0 0 0 1 0"/>
<feBlend mode="normal" in2="BackgroundImageFix" result="effect1_dropShadow_119_152"/>
<feBlend mode="normal" in="SourceGraphic" in2="effect1_dropShadow_119_152" result="shape"/>
</filter>
<filter id="filter13_d_119_152" x="67.1309" y="33.1309" width="9.53955" height="9.53906" filterUnits="userSpaceOnUse" color-interpolation-filters="sRGB">
<feFlood flood-opacity="0" result="BackgroundImageFix"/>
<feColorMatrix in="SourceAlpha" type="matrix" values="0 0 0 0 0 0 0 0 0 0 0 0 0 0 0 0 0 0 127 0" result="hardAlpha"/>
<feOffset/>
<feComposite in2="hardAlpha" operator="out"/>
<feColorMatrix type="matrix" values="0 0 0 0 1 0 0 0 0 0.992157 0 0 0 0 0.976471 0 0 0 1 0"/>
<feBlend mode="normal" in2="BackgroundImageFix" result="effect1_dropShadow_119_152"/>
<feBlend mode="normal" in="SourceGraphic" in2="effect1_dropShadow_119_152" result="shape"/>
</filter>
<clipPath id="clip0_119_152">
<rect x="11" y="7" width="81" height="81" rx="40.5" fill="white"/>
</clipPath>
</defs>
</svg>
