<svg width="11" height="11" viewBox="0 0 11 11" fill="none" xmlns="http://www.w3.org/2000/svg">
<path d="M5.5 0C2.46272 0 0 2.46272 0 5.5C0 8.5373 2.46272 11 5.5 11C8.5373 11 11 8.5373 11 5.5C11 2.46272 8.5373 0 5.5 0ZM3.47185 9.75818C3.33644 9.68125 3.24169 9.57255 3.20272 9.36706C3.10581 8.85615 3.19528 8.57971 3.64375 8.28069C3.85501 8.13985 3.88983 7.96955 4.05871 7.80067C4.10008 7.74813 4.21121 7.54595 4.2846 7.53549C4.3739 7.51636 4.6212 7.47344 4.67009 7.37589C4.76315 7.24954 4.96785 6.70317 5.05804 6.64906C5.20528 6.55269 5.41207 6.25718 5.26183 6.08187C5.08944 5.86965 4.84935 5.86663 4.62589 5.75528C4.4291 5.65687 4.34171 5.20821 4.19129 5.05303C3.89881 4.75504 3.45471 4.58162 3.08638 4.39745C2.88711 4.31765 2.90606 4.29295 2.75 4.44901C2.54959 4.64942 2.25664 4.39826 2.22701 4.1912C2.2248 4.1224 2.14608 3.74393 2.19263 3.71486C2.63352 3.43924 1.98815 3.50271 1.93482 3.37602C1.80334 3.00789 2.25421 2.71651 2.55848 2.68606C2.89941 2.64339 2.97059 3.22366 3.10112 3.17468C3.16388 3.14335 3.16412 2.87036 3.17232 2.81129C3.20343 2.61415 3.26042 2.5836 3.45223 2.51235C3.67562 2.42938 3.84664 2.32532 4.08326 2.28584C4.3535 2.20739 4.58211 2.2482 4.7904 2.07468C4.88587 2.0031 4.95501 2.11347 5.04576 2.13361C5.24216 2.17287 5.28393 1.86106 5.28393 1.74321C5.28309 1.62866 5.31499 1.53131 5.16853 1.40928C4.97686 1.26026 4.7013 1.38794 4.54732 1.54187C4.36135 1.7146 4.1457 1.70269 4.20848 1.40437C4.22405 1.29552 4.45915 1.16897 4.55223 1.10972C4.64308 1.05517 4.6972 1.17165 4.80759 1.1441C4.96913 1.10818 5.02941 1.26036 5.22009 1.26196C5.29947 1.24401 5.58338 1.093 5.43159 0.786451C5.4544 0.78623 5.47717 0.785714 5.5 0.785714C5.54555 0.785714 5.59102 0.786549 5.63639 0.787826C5.70527 1.00589 5.48993 1.19156 5.59821 1.46585C5.81404 1.99314 5.99088 1.53985 6.20469 1.29397C6.27464 1.22402 6.31844 1.23969 6.43304 1.21786C6.50414 1.206 6.60626 0.990245 6.63911 0.923656C7.13142 1.04523 7.60057 1.24639 8.02804 1.5192C7.84519 1.53865 7.79851 1.48493 7.80131 1.70033C7.80234 1.78178 7.8086 2.02736 7.9308 2.04777C8.13403 2.07171 8.0973 2.21552 8.28808 2.24051C8.47083 2.26448 8.35723 2.42597 8.43175 2.58549C8.51506 2.8366 7.94544 2.9121 7.83504 2.94888C7.50013 3.0607 7.99071 3.54824 8.20826 3.49643C8.27743 3.47914 8.50818 3.44973 8.52419 3.37202C8.52392 3.36408 8.47911 3.10163 8.5029 3.07165C8.54054 3.02417 8.62869 2.99932 8.76749 3.07791C9.09587 3.26386 9.26215 3.70894 9.64889 3.79721C9.70158 3.80922 9.79277 3.79353 9.85745 3.84713C9.91223 3.92116 10.0519 4.05377 9.88522 4.05377C9.66382 4.00459 9.54687 4.07486 9.36473 3.9341C9.17486 3.78734 9.05676 3.66668 8.80614 3.66214C8.59031 3.65824 8.39658 3.56837 8.17418 3.60444C8.05018 3.62455 7.92771 3.67346 7.80804 3.71002C7.69467 3.74778 7.67275 3.94979 7.55759 3.97274C7.0796 4.08522 7.18288 4.54163 7.09664 4.90364C7.06347 5.04267 6.94871 5.41934 7.07391 5.54417C7.29784 5.76157 7.55965 6.06066 7.8885 6.108C8.06543 6.13346 8.4521 5.99564 8.57165 6.1752C8.62228 6.27597 8.7545 6.1008 8.79018 6.18996C8.88012 6.45975 8.68551 6.63649 8.68369 6.89098C8.68099 7.26427 8.90904 7.39605 8.60357 7.72944C8.26861 8.06354 8.49718 8.4854 8.31138 8.88346C8.21214 9.08816 8.19333 9.37193 8.04444 9.46727C7.71698 9.677 7.36468 9.84513 6.99566 9.96777C6.34187 10.1848 5.6414 10.2544 4.95729 10.1754C4.59796 10.1341 4.24464 10.0511 3.90443 9.92826C3.81189 9.89479 3.72568 9.86675 3.64731 9.83731C3.58829 9.81213 3.52979 9.78575 3.47185 9.75818ZM2.44797 9.0929C2.43648 9.08315 2.42501 9.07335 2.41362 9.06348C2.32862 8.9897 2.24623 8.91295 2.16661 8.83339C2.08383 8.75063 2.00411 8.66488 1.9276 8.57629L1.92502 8.57327C1.90938 8.55515 1.89416 8.53679 1.87881 8.51842C0.609763 6.98478 0.42377 4.73894 1.48795 3.02254C1.63718 3.17178 1.38725 3.4651 1.6721 3.66094C1.79791 3.74948 1.91815 3.71395 1.89308 3.87701C1.8687 4.03535 2.02456 4.03256 2.04777 4.17165C2.11755 4.47683 2.51937 4.62938 2.29085 4.9721C2.06697 5.28209 1.87363 5.62839 2.04286 6.02299C2.0982 6.16687 2.2373 6.31415 2.34295 6.42184C2.53479 6.61743 2.52408 6.50012 2.52408 6.74732C2.52025 6.85469 2.65326 6.96577 2.63948 7.0346C2.61491 7.2313 2.56818 7.42574 2.54373 7.62143C2.49973 8.32459 2.54056 9.01268 3.06672 9.53906C2.87105 9.42106 2.6828 9.28741 2.50277 9.13908C2.48439 9.12383 2.46612 9.10843 2.44797 9.0929Z" fill="#7B8387"/>
</svg>
