<svg width="24" height="23" viewBox="0 0 24 23" fill="none" xmlns="http://www.w3.org/2000/svg">
<path d="M1.77909 22.1465C1.31066 22.1421 0.862654 21.9541 0.531413 21.6229C0.200172 21.2916 0.615226 21.7239 0.1893 21.2254C-0.236626 20.7269 0.1893 8.84641 0.1893 8.84641C0.1893 7.88056 0.998077 7.07512 1.96059 7.07512H4.61752C5.27256 7.07512 5.84739 7.45278 6.15486 7.99419C6.74975 7.62656 7.33461 7.41267 7.71226 7.19544C8.60124 6.68076 9.05576 5.23699 9.26631 3.72973C9.36992 2.97777 9.42673 2.25254 9.52031 1.64763C9.5671 1.34685 9.61054 1.07948 9.7342 0.785382C9.81314 0.56232 9.95733 0.36815 10.1481 0.228092C10.3388 0.0880353 10.5672 0.00856353 10.8037 0C12.1171 0 13.1932 0.514676 13.8783 1.3034C14.5668 2.08878 14.8876 3.07469 15.0614 4.05057C15.3422 5.64807 15.2352 7.0016 15.1817 7.96745H20.529C21.9862 7.96745 23.1893 9.16391 23.1893 10.6177C23.1893 11.1324 23.0422 11.5201 22.8551 12.1216C22.6679 12.7265 22.4173 13.4551 22.1366 14.2338C21.5818 15.7912 20.92 17.5558 20.4856 18.8559C20.3221 19.4151 20.0495 19.9365 19.6835 20.3899C19.4597 20.6492 19.1834 20.8581 18.8729 21.0027C18.5624 21.1473 18.2247 21.2244 17.8821 21.2287H7.26777C6.96637 21.2259 6.66778 21.1705 6.38546 21.065V21.2321C6.38546 22.1946 5.40187 22.1498 4.43602 22.1498L1.77909 22.1465ZM1.96059 19.4574H4.61752V8.84641H1.96059V19.4574ZM7.26777 19.4574H17.8821C18.1161 19.4574 18.1896 19.4106 18.3433 19.2302C18.5527 18.9455 18.711 18.6266 18.8112 18.2877C19.2624 16.9342 19.9241 15.1729 20.4722 13.6356C20.7463 12.8669 20.9936 12.155 21.164 11.5969C21.3378 11.0421 21.4214 10.5408 21.4214 10.6144C21.4237 10.4973 21.4022 10.381 21.3582 10.2724C21.3143 10.1639 21.2488 10.0654 21.1657 9.98295C21.0826 9.90047 20.9836 9.83571 20.8747 9.79259C20.7659 9.74946 20.6494 9.72887 20.5324 9.73205H14.266C14.1492 9.7325 14.0334 9.7098 13.9253 9.66528C13.8172 9.62076 13.7191 9.5553 13.6364 9.47266C13.5538 9.39002 13.4883 9.29185 13.4438 9.18379C13.3993 9.07574 13.3766 8.95994 13.377 8.84307C13.377 7.80035 13.6043 5.93548 13.3269 4.35135C13.1865 3.56263 12.9259 2.89756 12.5482 2.46643C12.2216 2.099 11.7727 1.86266 11.2849 1.80137C11.1947 2.30602 11.1345 3.16826 11.0209 3.9737C10.7903 5.62133 10.3558 7.70677 8.59456 8.7261C7.93617 9.10375 7.30119 9.32767 6.92353 9.58835C6.54254 9.84903 6.38881 9.98939 6.38881 10.6144V18.5684C6.38881 19.0764 6.76312 19.4574 7.26777 19.4574Z" fill="#7B8387"/>
</svg>
