<svg width="167" height="23" viewBox="0 0 167 23" fill="none" xmlns="http://www.w3.org/2000/svg">
<path d="M7.39453 22.2734C5.88151 22.2734 4.5918 22 3.52539 21.4531C2.45898 20.8971 1.64779 20.0404 1.0918 18.8828C0.535807 17.7253 0.257812 16.2441 0.257812 14.4395C0.257812 12.571 0.572266 11.0488 1.20117 9.87305C1.83919 8.68815 2.71875 7.81771 3.83984 7.26172C4.97005 6.70573 6.27799 6.42773 7.76367 6.42773C8.82096 6.42773 9.73242 6.53255 10.498 6.74219C11.2728 6.94271 11.9473 7.18424 12.5215 7.4668L11.291 10.6934C10.6348 10.429 10.0241 10.2148 9.45898 10.0508C8.89388 9.8776 8.32878 9.79102 7.76367 9.79102C7.03451 9.79102 6.42839 9.96419 5.94531 10.3105C5.46224 10.6478 5.10221 11.1582 4.86523 11.8418C4.62826 12.5254 4.50977 13.3822 4.50977 14.4121C4.50977 15.4238 4.63737 16.2624 4.89258 16.9277C5.14779 17.5931 5.51693 18.0898 6 18.418C6.48307 18.737 7.07096 18.8965 7.76367 18.8965C8.62956 18.8965 9.39974 18.7826 10.0742 18.5547C10.7487 18.3177 11.4049 17.9896 12.043 17.5703V21.1387C11.4049 21.5397 10.735 21.8268 10.0332 22C9.34049 22.1823 8.46094 22.2734 7.39453 22.2734ZM21.8594 6.40039C23.9102 6.40039 25.4824 6.84701 26.5762 7.74023C27.6699 8.63346 28.2168 9.99154 28.2168 11.8145V22H25.3047L24.498 19.9219H24.3887C23.9512 20.4688 23.5046 20.9154 23.0488 21.2617C22.5931 21.6081 22.069 21.8633 21.4766 22.0273C20.8841 22.1914 20.1641 22.2734 19.3164 22.2734C18.4141 22.2734 17.6029 22.1003 16.8828 21.7539C16.1719 21.4076 15.6113 20.8789 15.2012 20.168C14.791 19.4479 14.5859 18.5365 14.5859 17.4336C14.5859 15.8112 15.1556 14.6172 16.2949 13.8516C17.4342 13.0768 19.1432 12.6484 21.4219 12.5664L24.0742 12.4844V11.8145C24.0742 11.0124 23.8646 10.4245 23.4453 10.0508C23.026 9.67708 22.4427 9.49023 21.6953 9.49023C20.957 9.49023 20.2324 9.59505 19.5215 9.80469C18.8105 10.0143 18.0996 10.2786 17.3887 10.5977L16.0078 7.78125C16.819 7.35286 17.7259 7.01562 18.7285 6.76953C19.7402 6.52344 20.7839 6.40039 21.8594 6.40039ZM24.0742 14.918L22.4609 14.9727C21.112 15.0091 20.1732 15.2507 19.6445 15.6973C19.125 16.1439 18.8652 16.7318 18.8652 17.4609C18.8652 18.099 19.0521 18.5547 19.4258 18.8281C19.7995 19.0924 20.2871 19.2246 20.8887 19.2246C21.7819 19.2246 22.5339 18.9603 23.1445 18.4316C23.7643 17.903 24.0742 17.151 24.0742 16.1758V14.918ZM41.0547 6.42773C41.2643 6.42773 41.5059 6.44141 41.7793 6.46875C42.0618 6.48698 42.2897 6.51432 42.4629 6.55078L42.1484 10.4609C42.0117 10.4154 41.8158 10.3835 41.5605 10.3652C41.3145 10.3379 41.1003 10.3242 40.918 10.3242C40.3802 10.3242 39.8561 10.3926 39.3457 10.5293C38.8444 10.666 38.3932 10.8893 37.9922 11.1992C37.5911 11.5 37.2721 11.901 37.0352 12.4023C36.8073 12.8945 36.6934 13.5007 36.6934 14.2207V22H32.5234V6.71484H35.6816L36.2969 9.28516H36.502C36.8027 8.76562 37.1764 8.29167 37.623 7.86328C38.0788 7.42578 38.5938 7.07943 39.168 6.82422C39.7513 6.5599 40.3802 6.42773 41.0547 6.42773ZM51.541 6.42773C52.9538 6.42773 54.1706 6.70117 55.1914 7.24805C56.2122 7.78581 57.0007 8.56966 57.5566 9.59961C58.1126 10.6296 58.3906 11.8874 58.3906 13.373V15.3965H48.5332C48.5788 16.5723 48.9297 17.4974 49.5859 18.1719C50.2513 18.8372 51.1719 19.1699 52.3477 19.1699C53.3229 19.1699 54.2161 19.0697 55.0273 18.8691C55.8385 18.6686 56.6725 18.3678 57.5293 17.9668V21.1934C56.7728 21.5671 55.9798 21.8405 55.1504 22.0137C54.3301 22.1868 53.332 22.2734 52.1562 22.2734C50.625 22.2734 49.2669 21.9909 48.082 21.4258C46.9062 20.8607 45.9811 19.9993 45.3066 18.8418C44.6413 17.6842 44.3086 16.2259 44.3086 14.4668C44.3086 12.6803 44.6094 11.1947 45.2109 10.0098C45.8216 8.81576 46.6693 7.92253 47.7539 7.33008C48.8385 6.72852 50.1009 6.42773 51.541 6.42773ZM51.5684 9.39453C50.7572 9.39453 50.0827 9.6543 49.5449 10.1738C49.0163 10.6934 48.7109 11.5091 48.6289 12.6211H54.4805C54.4714 12.0013 54.3574 11.4499 54.1387 10.9668C53.929 10.4837 53.61 10.1009 53.1816 9.81836C52.7624 9.53581 52.2246 9.39453 51.5684 9.39453ZM68.084 6.42773C69.4967 6.42773 70.7135 6.70117 71.7344 7.24805C72.7552 7.78581 73.5436 8.56966 74.0996 9.59961C74.6556 10.6296 74.9336 11.8874 74.9336 13.373V15.3965H65.0762C65.1217 16.5723 65.4727 17.4974 66.1289 18.1719C66.7943 18.8372 67.7148 19.1699 68.8906 19.1699C69.8659 19.1699 70.7591 19.0697 71.5703 18.8691C72.3815 18.6686 73.2155 18.3678 74.0723 17.9668V21.1934C73.3158 21.5671 72.5228 21.8405 71.6934 22.0137C70.873 22.1868 69.875 22.2734 68.6992 22.2734C67.168 22.2734 65.8099 21.9909 64.625 21.4258C63.4492 20.8607 62.5241 19.9993 61.8496 18.8418C61.1842 17.6842 60.8516 16.2259 60.8516 14.4668C60.8516 12.6803 61.1523 11.1947 61.7539 10.0098C62.3646 8.81576 63.2122 7.92253 64.2969 7.33008C65.3815 6.72852 66.6439 6.42773 68.084 6.42773ZM68.1113 9.39453C67.3001 9.39453 66.6257 9.6543 66.0879 10.1738C65.5592 10.6934 65.2539 11.5091 65.1719 12.6211H71.0234C71.0143 12.0013 70.9004 11.4499 70.6816 10.9668C70.472 10.4837 70.153 10.1009 69.7246 9.81836C69.3053 9.53581 68.7676 9.39453 68.1113 9.39453ZM86.8555 6.42773C87.0651 6.42773 87.3066 6.44141 87.5801 6.46875C87.8626 6.48698 88.0905 6.51432 88.2637 6.55078L87.9492 10.4609C87.8125 10.4154 87.6165 10.3835 87.3613 10.3652C87.1152 10.3379 86.901 10.3242 86.7188 10.3242C86.181 10.3242 85.6569 10.3926 85.1465 10.5293C84.6452 10.666 84.194 10.8893 83.793 11.1992C83.3919 11.5 83.0729 11.901 82.8359 12.4023C82.6081 12.8945 82.4941 13.5007 82.4941 14.2207V22H78.3242V6.71484H81.4824L82.0977 9.28516H82.3027C82.6035 8.76562 82.9772 8.29167 83.4238 7.86328C83.8796 7.42578 84.3945 7.07943 84.9688 6.82422C85.5521 6.5599 86.181 6.42773 86.8555 6.42773ZM101.703 17.4609C101.703 18.5 101.457 19.3796 100.965 20.0996C100.482 20.8105 99.7572 21.3529 98.791 21.7266C97.8249 22.0911 96.6217 22.2734 95.1816 22.2734C94.1152 22.2734 93.1992 22.2051 92.4336 22.0684C91.6771 21.9316 90.9115 21.7038 90.1367 21.3848V17.9395C90.9661 18.3132 91.8548 18.623 92.8027 18.8691C93.7598 19.1061 94.5983 19.2246 95.3184 19.2246C96.1296 19.2246 96.7083 19.1061 97.0547 18.8691C97.4102 18.623 97.5879 18.304 97.5879 17.9121C97.5879 17.6569 97.515 17.429 97.3691 17.2285C97.2324 17.0189 96.9316 16.7865 96.4668 16.5312C96.002 16.2669 95.2728 15.9251 94.2793 15.5059C93.3223 15.1048 92.5339 14.6992 91.9141 14.2891C91.3034 13.8789 90.8477 13.3958 90.5469 12.8398C90.2552 12.2747 90.1094 11.5592 90.1094 10.6934C90.1094 9.2806 90.6562 8.21875 91.75 7.50781C92.8529 6.78776 94.3249 6.42773 96.166 6.42773C97.1139 6.42773 98.0163 6.52344 98.873 6.71484C99.7389 6.90625 100.628 7.21159 101.539 7.63086L100.281 10.6387C99.5247 10.3105 98.8092 10.0417 98.1348 9.83203C97.4694 9.6224 96.7904 9.51758 96.0977 9.51758C95.487 9.51758 95.0267 9.59961 94.7168 9.76367C94.4069 9.92773 94.252 10.1784 94.252 10.5156C94.252 10.7617 94.3294 10.9805 94.4844 11.1719C94.6484 11.3633 94.9583 11.5775 95.4141 11.8145C95.8789 12.0423 96.5579 12.3385 97.4512 12.7031C98.3171 13.0586 99.069 13.4323 99.707 13.8242C100.345 14.207 100.837 14.6855 101.184 15.2598C101.53 15.8249 101.703 16.5586 101.703 17.4609ZM111.396 18.9512C111.852 18.9512 112.294 18.9056 112.723 18.8145C113.16 18.7233 113.593 18.6094 114.021 18.4727V21.5762C113.575 21.7767 113.019 21.9408 112.354 22.0684C111.697 22.2051 110.977 22.2734 110.193 22.2734C109.282 22.2734 108.462 22.1276 107.732 21.8359C107.012 21.5352 106.443 21.0202 106.023 20.291C105.613 19.5527 105.408 18.5273 105.408 17.2148V9.8457H103.412V8.08203L105.709 6.6875L106.912 3.46094H109.578V6.71484H113.857V9.8457H109.578V17.2148C109.578 17.7982 109.742 18.2357 110.07 18.5273C110.408 18.8099 110.85 18.9512 111.396 18.9512ZM121.295 0.726562V5.06055C121.295 5.81706 121.268 6.53711 121.213 7.2207C121.167 7.9043 121.131 8.38737 121.104 8.66992H121.322C121.65 8.14128 122.038 7.71289 122.484 7.38477C122.94 7.05664 123.441 6.8151 123.988 6.66016C124.535 6.50521 125.123 6.42773 125.752 6.42773C126.855 6.42773 127.816 6.6237 128.637 7.01562C129.457 7.39844 130.095 8.00456 130.551 8.83398C131.007 9.6543 131.234 10.7207 131.234 12.0332V22H127.064V13.0723C127.064 11.9785 126.864 11.1536 126.463 10.5977C126.062 10.0417 125.442 9.76367 124.604 9.76367C123.765 9.76367 123.104 9.95964 122.621 10.3516C122.138 10.7344 121.796 11.304 121.596 12.0605C121.395 12.8079 121.295 13.724 121.295 14.8086V22H117.125V0.726562H121.295ZM141.789 6.40039C143.84 6.40039 145.412 6.84701 146.506 7.74023C147.6 8.63346 148.146 9.99154 148.146 11.8145V22H145.234L144.428 19.9219H144.318C143.881 20.4688 143.434 20.9154 142.979 21.2617C142.523 21.6081 141.999 21.8633 141.406 22.0273C140.814 22.1914 140.094 22.2734 139.246 22.2734C138.344 22.2734 137.533 22.1003 136.812 21.7539C136.102 21.4076 135.541 20.8789 135.131 20.168C134.721 19.4479 134.516 18.5365 134.516 17.4336C134.516 15.8112 135.085 14.6172 136.225 13.8516C137.364 13.0768 139.073 12.6484 141.352 12.5664L144.004 12.4844V11.8145C144.004 11.0124 143.794 10.4245 143.375 10.0508C142.956 9.67708 142.372 9.49023 141.625 9.49023C140.887 9.49023 140.162 9.59505 139.451 9.80469C138.74 10.0143 138.029 10.2786 137.318 10.5977L135.938 7.78125C136.749 7.35286 137.656 7.01562 138.658 6.76953C139.67 6.52344 140.714 6.40039 141.789 6.40039ZM144.004 14.918L142.391 14.9727C141.042 15.0091 140.103 15.2507 139.574 15.6973C139.055 16.1439 138.795 16.7318 138.795 17.4609C138.795 18.099 138.982 18.5547 139.355 18.8281C139.729 19.0924 140.217 19.2246 140.818 19.2246C141.712 19.2246 142.464 18.9603 143.074 18.4316C143.694 17.903 144.004 17.151 144.004 16.1758V14.918ZM161.135 6.42773C162.766 6.42773 164.079 6.87435 165.072 7.76758C166.066 8.65169 166.562 10.0736 166.562 12.0332V22H162.393V13.0723C162.393 11.9785 162.192 11.1536 161.791 10.5977C161.399 10.0417 160.779 9.76367 159.932 9.76367C158.656 9.76367 157.785 10.1966 157.32 11.0625C156.855 11.9284 156.623 13.1771 156.623 14.8086V22H152.453V6.71484H155.639L156.199 8.66992H156.432C156.76 8.14128 157.165 7.71289 157.648 7.38477C158.141 7.05664 158.683 6.8151 159.275 6.66016C159.877 6.50521 160.497 6.42773 161.135 6.42773Z" fill="#31AEA5"/>
</svg>
