<svg width="31" height="28" viewBox="0 0 31 28" fill="none" xmlns="http://www.w3.org/2000/svg">
<path d="M0 3.25253C0 2.30975 0.349109 1.53197 1.0473 0.919192C1.74549 0.306389 2.65316 0 3.77027 0C4.86745 0 5.75514 0.301666 6.4334 0.905051C7.13159 1.52727 7.48069 2.33803 7.48069 3.33737C7.48069 4.24242 7.14158 4.99662 6.46332 5.6C5.76513 6.22222 4.84749 6.53333 3.71042 6.53333H3.6805C2.58332 6.53333 1.69563 6.22222 1.01737 5.6C0.339115 4.97778 0 4.19527 0 3.25253ZM0.388996 28V9.10707H7.03185V28H0.388996ZM10.7124 28H17.3552V17.4505C17.3552 16.7906 17.435 16.2815 17.5946 15.9232C17.8739 15.2821 18.2978 14.74 18.8663 14.297C19.4348 13.8539 20.148 13.6323 21.0058 13.6323C23.24 13.6323 24.3571 15.0559 24.3571 17.903V28H31V17.1677C31 14.3771 30.3018 12.2606 28.9054 10.8182C27.509 9.37576 25.6638 8.65455 23.3697 8.65455C20.7963 8.65455 18.7915 9.70102 17.3552 11.7939V11.8505H17.3253L17.3552 11.7939V9.10707H10.7124C10.7522 9.71043 10.7722 11.5865 10.7722 14.7354C10.7722 17.8842 10.7522 22.3057 10.7124 28Z" fill="#4C4C4C"/>
</svg>
