<svg width="40" height="42" viewBox="0 0 40 42" fill="none" xmlns="http://www.w3.org/2000/svg">
<g filter="url(#filter0_d_105_883)">
<path d="M20.3296 14.5651H35.7449C35.915 15.5538 36 16.4983 36 17.3984C36 20.6007 35.355 23.4599 34.0651 25.9759C32.7752 28.492 30.936 30.4583 28.5475 31.875C26.159 33.2917 23.4197 34 20.3296 34C18.1041 34 15.9849 33.5536 13.9721 32.6608C11.9592 31.768 10.2228 30.5616 8.76279 29.0417C7.30277 27.5217 6.14396 25.714 5.28638 23.6185C4.42879 21.523 4 19.3168 4 17C4 14.6832 4.42879 12.477 5.28638 10.3815C6.14396 8.28602 7.30277 6.4783 8.76279 4.95833C10.2228 3.43837 11.9592 2.23199 13.9721 1.33919C15.9849 0.446398 18.1041 0 20.3296 0C24.5821 0 28.2321 1.48307 31.2797 4.44922L26.8359 8.89844C25.0924 7.14236 22.9236 6.26432 20.3296 6.26432C18.501 6.26432 16.8106 6.74392 15.2585 7.70312C13.7063 8.66233 12.4766 9.96463 11.5694 11.61C10.6622 13.2554 10.2086 15.0521 10.2086 17C10.2086 18.9479 10.6622 20.7446 11.5694 22.39C12.4766 24.0354 13.7063 25.3377 15.2585 26.2969C16.8106 27.2561 18.501 27.7357 20.3296 27.7357C21.5628 27.7357 22.6968 27.5586 23.7316 27.2044C24.7663 26.8503 25.6168 26.4076 26.2831 25.8763C26.9493 25.3451 27.5305 24.74 28.0266 24.0612C28.5227 23.3824 28.8877 22.7404 29.1216 22.1354C29.3555 21.5304 29.515 20.9549 29.6 20.4089H20.3296V14.5651Z" fill="#4C4C4C"/>
</g>
<defs>
<filter id="filter0_d_105_883" x="0" y="0" width="40" height="42" filterUnits="userSpaceOnUse" color-interpolation-filters="sRGB">
<feFlood flood-opacity="0" result="BackgroundImageFix"/>
<feColorMatrix in="SourceAlpha" type="matrix" values="0 0 0 0 0 0 0 0 0 0 0 0 0 0 0 0 0 0 127 0" result="hardAlpha"/>
<feOffset dy="4"/>
<feGaussianBlur stdDeviation="2"/>
<feComposite in2="hardAlpha" operator="out"/>
<feColorMatrix type="matrix" values="0 0 0 0 0 0 0 0 0 0 0 0 0 0 0 0 0 0 0.25 0"/>
<feBlend mode="normal" in2="BackgroundImageFix" result="effect1_dropShadow_105_883"/>
<feBlend mode="normal" in="SourceGraphic" in2="effect1_dropShadow_105_883" result="shape"/>
</filter>
</defs>
</svg>
