<svg width="27" height="22" viewBox="0 0 27 22" fill="none" xmlns="http://www.w3.org/2000/svg">
<path fill-rule="evenodd" clip-rule="evenodd" d="M0.449912 2.42408C0.449912 2.42408 -0.197864 2.43241 0.0611298 2.0616C0.320124 1.6908 0.441182 1.42769 0.630916 1.26283C0.820651 1.09796 1.71869 0.587832 2.31467 0.720499C2.31467 0.720499 3.71149 -0.0699538 4.63688 0.168736C4.63688 0.168736 5.55238 -0.291991 5.44006 0.309175C5.32773 0.910341 5.30212 0.950308 5.30212 0.950308C5.89075 1.36461 6.29196 1.97709 6.42423 2.66333C6.63143 3.80016 6.97714 4.82097 7.73724 5.51262C8.49735 6.20427 9.01475 6.50068 10.0164 5.61143C11.018 4.72217 12.0534 3.14126 13.1592 3.0097C14.2651 2.87815 15.7148 2.44961 16.4767 1.98833C17.2385 1.52705 18.6883 0.473482 20.4827 2.81209C20.4827 2.81209 20.673 3.30612 21.9505 3.70024C23.228 4.09436 23.902 5.01748 24.4717 5.69302C25.0415 6.36857 25.4216 7.40549 24.7657 9.31612C24.1097 11.2267 23.9002 13.4321 24.037 14.1588C24.1738 14.8854 24.5724 16.0194 24.2116 16.5301C23.8507 17.0408 22.8817 18.2759 22.6058 19.2501C22.33 20.2243 21.915 21.0119 21.7939 21.506C21.6729 22 20.1189 22 20.1189 22C20.1189 22 20.7929 21.819 21.2073 20.9625C21.6216 20.106 22.3468 18.2781 22.554 17.4382C22.7612 16.5984 22.845 14.0289 22.6751 13.4199C22.5051 12.811 21.4755 11.2739 21.5791 10.7633C21.6827 10.2526 21.8556 10.1371 21.9417 9.74189C22.0279 9.34666 22.2264 6.91423 22.2264 6.91423C22.2264 6.91423 22.1746 8.60837 20.6031 9.59644C19.0317 10.5845 15.2487 11.0452 15.2487 11.0452C15.2487 11.0452 15.4902 14.0755 15.6974 14.7344C15.9046 15.3933 15.9389 16.3813 15.801 17.0069C15.663 17.6325 16.319 21.8163 16.319 21.8163H14.5211C14.5211 21.8163 14.1393 21.637 15.074 20.8438C15.1613 19.7891 15.0415 16.8754 14.7307 16.3486C14.4199 15.8218 14.1085 14.8332 14.1434 14.0094C14.1783 13.1857 13.2803 10.7344 12.9695 10.5679C12.6587 10.4013 10.5187 9.72744 10.2434 9.62919C9.96808 9.53094 6.4964 9.8429 5.5291 7.63585C4.5618 5.4288 4.07757 3.45267 3.66318 3.38495C3.24879 3.31723 3.07594 3.3522 2.52361 3.1074C1.97128 2.8626 1.38404 2.66333 1.38404 2.66333C1.38404 2.66333 0.728112 3.25505 0.572716 3.20565C0.417319 3.15625 0.209542 3.00804 0.449912 2.42408Z" fill="#31AEA5"/>
<path fill-rule="evenodd" clip-rule="evenodd" d="M21.429 8.8182C21.6426 9.18456 21.9033 9.65417 22.1193 10.111C22.1195 10.1077 22.1195 10.1043 22.1193 10.101C22.206 9.70579 22.2234 6.8565 22.2234 6.8565C22.1653 7.57039 21.8891 8.2524 21.429 8.8182Z" fill="#31AEA5"/>
<path fill-rule="evenodd" clip-rule="evenodd" d="M13.0369 10.3514C12.892 10.2867 12.8103 10.1223 12.6586 10.0738C12.3816 9.97556 12.1017 9.88175 11.8223 9.78905C11.5656 9.70412 11.0558 9.79738 10.7962 9.713C11.0197 10.1321 11.1804 10.9731 11.2782 11.4671C11.5203 12.6883 11.589 14.267 11.6239 14.8598C11.6588 15.4527 11.3818 15.9795 11.6239 16.8687C11.866 17.758 11.8438 20.7049 11.1745 21.149C11.0668 21.3899 10.9772 21.6653 10.9999 21.7907H12.4258C12.5376 21.5132 12.4258 21.149 12.5563 20.5251C12.5563 19.7347 12.5214 18.2193 12.6942 17.6592C12.8671 17.0991 13.1429 16.0783 13.005 15.0241C12.9096 14.297 12.7996 12.0721 13.357 11.0175C13.2337 10.7172 13.1306 10.4496 13.0369 10.3514Z" fill="#31AEA5"/>
<path fill-rule="evenodd" clip-rule="evenodd" d="M26.9755 15.189C26.837 14.9115 26.095 14.0028 25.5595 12.685C25.2877 12.0189 24.7621 10.5046 24.5608 9.65757C24.3575 10.4051 23.8915 11.4155 23.8042 12.1832C23.7733 12.453 24.0952 12.8771 24.3035 13.3988C24.5899 13.7567 24.8262 14.1486 25.0066 14.5645C25.524 15.7857 25.5071 16.2115 25.5933 16.7222C25.6794 17.2329 25.7836 18.1221 25.8011 18.4346C25.8185 18.7472 25.7143 20.0655 25.68 20.4441C25.6457 20.8226 25.6107 21.5476 25.3692 21.6131C25.246 21.6558 25.1304 21.7163 25.0264 21.7924H26.2841C26.2841 21.7163 26.3214 19.4965 26.4744 18.0733C26.6298 16.6217 27.1135 15.4688 26.9755 15.189Z" fill="#31AEA5"/>
<path fill-rule="evenodd" clip-rule="evenodd" d="M25.893 11.2379L24.8128 6.26199C24.8259 6.7309 24.7825 7.19969 24.6836 7.65916C24.7569 8.03274 24.8198 8.45794 24.8727 8.8726C25.1585 9.64973 25.513 10.5423 25.8325 11.1302C25.8523 11.1651 25.8726 11.2018 25.893 11.2379Z" fill="#31AEA5"/>
<path d="M4.99311 4.66278L5.70153 13.416L5.08082 15.4202L4.36254 13.4275L4.99311 4.66278Z" fill="#31AEA5"/>
</svg>
