<svg width="10" height="12" viewBox="0 0 10 12" fill="none" xmlns="http://www.w3.org/2000/svg">
<path d="M8.61905 0.9H1.38095C1.25646 0.9 1.13973 0.938052 1.05191 1.0039C0.964172 1.0697 0.9 1.1683 0.9 1.28565V5.99893V10.7122C0.9 10.9008 1.04639 11.0251 1.20103 11.0736C1.358 11.1229 1.55436 11.1071 1.70761 10.9922L5 8.5234L8.29239 10.9922C8.41662 11.0853 8.61035 11.1108 8.76908 11.0759C8.8506 11.058 8.93217 11.0223 8.99482 10.9622C9.05956 10.9001 9.1 10.8155 9.1 10.7122V5.99893V1.28565C9.1 1.1683 9.03583 1.0697 8.94809 1.0039C8.86027 0.938052 8.74354 0.9 8.61905 0.9ZM8.1381 9.82666L5.32666 7.71853C5.13873 7.57761 4.86127 7.57761 4.67334 7.71853L1.8619 9.82666V1.67131H8.1381V9.82666Z" fill="#33AEA5" stroke="#33AEA5" stroke-width="0.2"/>
</svg>
